<svg xmlns="http://www.w3.org/2000/svg" width="15.532" height="15.521" viewBox="0 0 15.532 15.521">
  <g id="phone" transform="translate(0.301 0.301)">
    <g id="Group_3" data-name="Group 3" transform="translate(0 0)">
      <g id="Group_2" data-name="Group 2" transform="translate(0 0)">
        <path id="Path_2" data-name="Path 2" d="M1.393,12.567l3.03-2.021a.884.884,0,0,1,1.184.192L6.52,12.1c.113.15-.113.775.38,0A12.662,12.662,0,0,0,9.786,9.805a10.188,10.188,0,0,0,2.077-2.644l.092-.168a.378.378,0,0,0-.1-.485l-1.134-.882a.885.885,0,0,1-.193-1.184l2.021-3.03a.88.88,0,0,1,1.186-.267L15,1.9a1.787,1.787,0,0,1,.815,1.058c.456,1.663.113,4.532-4.114,8.759-3.362,3.362-5.865,4.266-7.586,4.266a4.42,4.42,0,0,1-1.173-.153,1.786,1.786,0,0,1-1.058-.815l-.762-1.266A.88.88,0,0,1,1.393,12.567Zm5.99-.246c-.543.3-1.021.2-2.167-1.275a.384.384,0,0,0-.514-.083L6.227,12.1Z" transform="translate(-1 -1.018)" fill="#dbb469" stroke="#dbb469" stroke-width="0.5"/>
        <path id="Path_3" data-name="Path 3" d="M287.368,69.823a4.246,4.246,0,0,0-4.241,4.241.249.249,0,0,1-.5,0,4.745,4.745,0,0,1,4.74-4.74.249.249,0,1,1,0,.5Z" transform="translate(-280.88 -67.327)" fill="#dbb469" stroke="#dbb469" stroke-width="0.5"/>
        <path id="Path_4" data-name="Path 4" d="M285.871,121.023a2.747,2.747,0,0,0-2.744,2.744.249.249,0,0,1-.5,0,3.247,3.247,0,0,1,3.243-3.243.249.249,0,1,1,0,.5Z" transform="translate(-279.383 -117.03)" fill="#dbb469" stroke="#dbb469" stroke-width="0.5"/>
        <path id="Path_5" data-name="Path 5" d="M284.374,172.223a1.249,1.249,0,0,0-1.247,1.247.249.249,0,1,1-.5,0,1.748,1.748,0,0,1,1.746-1.746.249.249,0,0,1,0,.5Z" transform="translate(-277.886 -166.733)" fill="#dbb469" stroke="#dbb469" stroke-width="0.5"/>
      </g>
    </g>
  </g>
</svg>
